<?xml version="1.0" standalone="no"?>
<!DOCTYPE svg PUBLIC "-//W3C//DTD SVG 20010904//EN"
 "http://www.w3.org/TR/2001/REC-SVG-20010904/DTD/svg10.dtd">
<svg version="1.0" xmlns="http://www.w3.org/2000/svg"
 width="500.000000pt" height="500.000000pt" viewBox="0 0 500.000000 500.000000"
 preserveAspectRatio="xMidYMid meet">

<g transform="translate(0.000000,500.000000) scale(0.100000,-0.100000)"
fill="#2C4554" stroke="none">
<path d="M1122 4668 c-22 -22 -6 -179 23 -225 l14 -21 388 5 c295 5 401 3 443
-7 38 -9 231 -15 630 -22 316 -5 699 -11 851 -14 l276 -5 7 -237 c4 -138 11
-239 17 -243 15 -9 223 2 237 13 15 13 17 603 2 660 -6 20 -25 49 -42 63 -30
25 -36 27 -88 19 -114 -16 -1226 -6 -2510 22 -179 3 -238 2 -248 -8z"/>
<path d="M1010 4181 c0 -67 30 -198 76 -338 87 -260 150 -382 305 -588 136
-182 197 -240 317 -303 56 -29 102 -59 102 -65 2 -50 21 -346 26 -401 8 -82
-8 -88 -36 -13 -24 63 -122 198 -188 258 -29 26 -89 69 -133 96 -45 26 -119
78 -165 116 -46 37 -88 67 -93 67 -16 0 -21 -43 -21 -196 0 -145 1 -154 29
-222 16 -39 43 -91 59 -114 93 -135 289 -249 487 -282 l70 -12 3 -60 c2 -32
-4 -113 -13 -179 -8 -66 -20 -277 -26 -470 -6 -192 -13 -352 -15 -354 -2 -2
-83 -7 -181 -12 -98 -4 -179 -8 -180 -8 -2 -1 -3 -46 -3 -101 0 -85 3 -101 18
-108 19 -9 950 2 959 12 3 3 2 59 -3 123 l-9 118 -120 3 c-79 2 -151 -3 -211
-13 -49 -9 -103 -15 -120 -13 l-29 3 3 115 c2 63 7 169 13 235 6 72 7 286 3
535 -7 432 0 570 32 634 9 17 103 119 209 226 105 107 211 224 235 259 73 109
126 241 150 371 9 52 1 252 -11 272 -14 22 -75 -19 -129 -88 -27 -35 -105
-111 -172 -169 -212 -184 -275 -276 -335 -487 -18 -62 -28 -30 -33 97 -4 98
-9 138 -22 162 -24 43 -23 58 7 97 37 48 89 168 123 281 37 125 82 314 82 346
0 28 -17 49 -40 49 -124 -1 -303 -198 -341 -377 -11 -58 -22 -65 -40 -31 -27
51 -123 137 -263 237 -185 131 -246 186 -288 259 -35 62 -44 72 -70 72 -14 0
-18 -8 -18 -39z"/>
<path d="M3308 3136 c-2 -74 -6 -137 -9 -140 -15 -16 -128 -25 -374 -31 -148
-3 -280 -8 -292 -11 -22 -4 -23 -10 -23 -83 0 -43 3 -92 6 -109 l6 -30 347 1
346 2 5 -145 5 -145 83 4 c105 4 134 12 149 42 14 26 16 453 4 664 l-6 110
-122 3 -121 3 -4 -135z"/>
<path d="M2763 2028 c-9 -12 -23 -79 -43 -198 -5 -30 -3 -63 7 -100 8 -30 19
-72 24 -93 16 -65 65 -162 103 -204 33 -37 35 -44 26 -69 -6 -15 -8 -44 -5
-64 10 -59 -11 -66 -71 -23 -105 76 -288 145 -326 122 -20 -12 8 -152 45 -228
63 -128 200 -225 320 -226 l59 0 16 -40 c43 -113 160 -254 271 -330 89 -61
166 -86 277 -93 147 -8 235 21 326 106 96 89 194 290 160 324 -24 24 -60 -8
-101 -89 -105 -209 -269 -291 -466 -232 -170 50 -308 183 -388 373 -16 39 -37
82 -45 94 -19 29 -5 42 49 42 54 0 153 55 230 127 51 49 77 83 108 146 22 45
43 101 47 124 6 37 4 43 -20 58 -21 14 -41 17 -97 13 -58 -5 -87 -13 -153 -47
-44 -22 -84 -41 -89 -41 -15 0 -5 25 44 107 43 71 62 92 112 124 81 53 171 79
293 86 118 7 179 -5 274 -52 99 -50 130 -93 130 -179 0 -42 13 -66 36 -66 18
0 26 91 18 236 -8 149 -16 162 -64 105 -25 -30 -25 -30 -65 -14 -92 36 -212
62 -287 62 -160 2 -339 -54 -423 -131 -58 -52 -75 -54 -75 -9 0 77 -163 291
-221 291 -15 0 -31 -6 -36 -12z"/>
</g>
</svg>
